<?xml version="1.0" encoding="utf-8"?>
<!-- Generator: Adobe Illustrator 21.0.0, SVG Export Plug-In . SVG Version: 6.00 Build 0)  -->
<svg version="1.1" xmlns="http://www.w3.org/2000/svg" xmlns:xlink="http://www.w3.org/1999/xlink" x="0px" y="0px"
	 viewBox="0 0 370.5 86" style="enable-background:new 0 0 370.5 86;" xml:space="preserve">
<style type="text/css">
	.st0{fill:#00D1B2;}
	.st1{fill:#333333;}
</style>
<g id="图层_2">
	<path class="st0" d="M6.3,15.2v24h15.4c0,0,8.6,0,8.6-12.5c0-12.5-9.6-11.5-9.6-11.5H6.3z"/>
	<circle cx="22.3" cy="28.2" r="3"/>
	<path class="st0" d="M158.5,28.7c0,0,7.1-0.9,8,6.2c0.9,7.1,0.9,11.5,0,15c-0.9,3.5-3.5,5.3-8,5.3s-8.8,0-9.7-6.2
		c-0.9-6.2,0-13.3,0-13.3S148.7,28.7,158.5,28.7z"/>
</g>
<g id="图层_1">
	<g>
		<path class="st1" d="M24.6,43.9H10.7v17.4H6.3v-50h18.3c5.3,0,9.3,1.3,11.8,3.9c2.5,2.6,3.8,6.6,3.8,12
			C40.1,38.3,34.9,43.9,24.6,43.9z M10.7,40h13.8c7.3,0,10.9-4.3,10.9-12.8c0-4.1-0.9-7.1-2.6-9c-1.7-1.9-4.5-2.9-8.4-2.9H10.7V40z"
			/>
		<path class="st1" d="M44.6,25.4H49l9.6,32.3h2.6l9.6-32.3h4.4L59.7,77.6h-4.3l4.8-16.2h-5L44.6,25.4z"/>
		<path class="st1" d="M100.7,29.2h-12V47c0,4.7,0.3,7.7,1,9.1c0.7,1.4,2.3,2.2,4.8,2.2l6.6-0.5l0.3,3.7c-3.2,0.5-5.6,0.7-7.3,0.7
			c-3.6,0-6.2-0.9-7.6-2.7c-1.4-1.8-2.1-5.2-2.1-10.3V29.2h-5.3v-3.8h5.3V14.1h4.3v11.3h12V29.2z"/>
		<path class="st1" d="M111.7,61.4h-4.2v-52h4.2v18.1c4-1.9,7.9-2.8,11.7-2.8c4.8,0,8,1.3,9.6,3.8c1.6,2.5,2.4,7.2,2.4,14v18.9h-4.3
			V42.6c0-5.5-0.5-9.3-1.5-11.2c-1-1.9-3.3-2.9-6.7-2.9c-1.7,0-3.4,0.2-5.3,0.6c-1.8,0.4-3.3,0.8-4.3,1.3l-1.5,0.6V61.4z"/>
		<path class="st1" d="M144.4,43.3c0-6.8,1.1-11.6,3.4-14.4c2.3-2.8,6.2-4.2,11.7-4.2c5.5,0,9.4,1.4,11.7,4.2
			c2.3,2.8,3.4,7.6,3.4,14.4c0,6.8-1,11.6-3.1,14.5c-2.1,2.9-6.1,4.3-11.9,4.3c-5.9,0-9.8-1.4-12-4.3
			C145.4,54.9,144.4,50.1,144.4,43.3z M148.8,43.2c0,5.7,0.7,9.6,2,11.8c1.3,2.2,4.2,3.3,8.6,3.3c4.4,0,7.3-1.1,8.7-3.3
			c1.3-2.2,2-6.1,2-11.8c0-5.6-0.8-9.5-2.3-11.6s-4.3-3.1-8.4-3.1c-4.1,0-6.9,1-8.4,3.1C149.6,33.6,148.8,37.5,148.8,43.2z"/>
		<path class="st1" d="M188.1,61.4h-4.2v-36h4.2V28c4-2.3,7.9-3.4,11.7-3.4c4.8,0,8,1.3,9.6,3.8c1.6,2.5,2.4,7.2,2.4,14v18.9h-4.3
			V42.6c0-5.5-0.5-9.3-1.6-11.2c-1.1-1.9-3.3-2.9-6.8-2.9c-1.7,0-3.4,0.3-5.3,0.8c-1.8,0.5-3.3,1-4.3,1.5l-1.5,0.7V61.4z"/>
	</g>
	<polygon class="st0" points="244.4,44.7 232.3,31.5 232.3,57.9 	"/>
	<g>
		<path class="st1" d="M271.8,15.6v50.2h-4.6v-45l-13.4,9l-2.2-3.6l15.8-10.5H271.8z"/>
		<path class="st1" d="M322.7,65.7h-32v-4l15.7-16.6c2.5-2.7,4.4-4.7,5.5-6c1.1-1.3,2.2-3,3.1-4.9c0.9-1.9,1.4-3.9,1.4-5.9
			c0-3.4-0.9-5.8-2.8-7.2c-1.9-1.4-4.8-2.1-8.8-2.1c-3.3,0-7.1,0.5-11.2,1.4l-2.1,0.5l-0.4-4c4.8-1.4,9.7-2.1,14.7-2.1
			c5,0,8.9,1.1,11.5,3.2c2.6,2.1,3.9,5.5,3.9,10.1c0,3.5-0.8,6.5-2.4,9.1c-1.6,2.6-4.2,5.7-7.9,9.4l-14.6,15h26.3V65.7z"/>
		<path class="st1" d="M333.7,16.7c4.8-1.3,9.8-1.9,15.2-1.9c5.3,0,9.2,1,11.6,3c2.4,2,3.6,5.3,3.6,9.8c0,5-2.3,8.7-7,11l-0.9,0.5
			c3.1,1,5.4,2.3,6.9,4c1.5,1.7,2.3,4.5,2.3,8.4c0,5-1.3,8.8-3.9,11.2c-2.6,2.5-6.7,3.7-12.2,3.7c-4.8,0-9.5-0.5-14.1-1.5l-2.3-0.5
			l0.5-4c5.4,1.1,10.6,1.7,15.6,1.7c7.8,0,11.6-3.5,11.6-10.4c0-6.5-3.7-9.9-11-10.3h-10.2v-4.1h10.1c2.3,0,4.5-0.9,6.6-2.7
			c2.1-1.8,3.2-4.2,3.2-7.2s-0.8-5.2-2.5-6.6c-1.6-1.3-4.5-2-8.5-2c-4,0-8.1,0.4-12.2,1.2l-1.9,0.4L333.7,16.7z"/>
	</g>
	<g>
		<path d="M876-8c9.3,2.1,11.6,4,11.6,7.4c0,2.1-1.1,3.3-2.3,3.3c-0.7,0-1.1-0.3-1.7-1.7c-1.3-3.3-2.6-5.3-7.8-8.1L876-8z
			 M897.8-15.1l-8.4,29.9c-0.8,2.7-1.1,5.9-1.1,9.1c0,3.4,0.4,7.1,1,10.9c0.1,0.5,0.2,1.1,0.2,1.5c0,2.4-1.2,3.6-2.8,3.6
			c-1.5,0-2.5-1.1-2.5-3.2c0-0.5,0.1-1.2,0.2-2c0.9-4.6,1.4-7.8,1.4-9.8c0-3.3-1.1-4-3.2-4.5c-2.1-0.5-4.1-0.7-6.5-0.7v-1.2
			c7.5,0.2,9.3-0.7,10.7-4.7l10-29.4L897.8-15.1z M880.2-24.9c9.1,2.3,12.4,4,12.4,7.4c0,1.7-0.9,3.6-2.1,3.6
			c-0.8,0-1.3-0.3-2.1-2.2c-1.1-2.6-3-5.1-8.6-8.1L880.2-24.9z M946.7,34.4c-3-0.1-4.8,0.5-6.5,2.7c-0.2,0.3-0.5,0.4-0.8,0.4
			c-0.2,0-0.5-0.1-0.8-0.3c-11.4-7.8-15.7-15.1-19.5-24.4c-2.1,1.8-4.3,3.6-6.7,5.6v16.3l10-4.4l0.5,1.1c-9.1,5.1-11.6,7.2-13.4,9.1
			c-0.2,0.3-0.4,0.4-0.5,0.4s-0.3-0.1-0.5-0.3l-2.2-3.4c2.4-1.4,2.7-2.1,2.7-3.1V21.1c-6,4.7-11.6,8.6-17.2,11.7l-0.6-1
			c8.4-5.4,19-14.7,27.2-23.9l4,2.9c0.2,0.2,0.2,0.2,0.2,0.3c0,0.2-0.2,0.3-0.5,0.3c-0.8,0.1-1.4,0.2-2.1,0.6
			c1.4,3.1,3.2,6.2,5.3,8.9c4-3,7.4-5.8,10.3-8.7l3,3c0.2,0.2,0.2,0.3,0.2,0.5s-0.2,0.5-0.6,0.5c-0.9,0-1.3,0.2-12.1,5.6
			c4.9,6,11.7,10.5,20.4,11.6V34.4z M914.2-11.9c0.3,0.3,0.5,0.5,0.5,0.7c0,0.2-0.2,0.2-0.5,0.3c-1.1,0.2-2.1,0.7-3.1,1.6
			c-5.3,4.8-8.8,7.8-13.9,12l-0.8-0.8c5.1-5.2,11.4-12.8,14.1-16.9L914.2-11.9z M944.6-18.5c0.5,0.4,0.8,0.7,0.8,1
			c0,0.3-0.4,0.5-1.1,0.5h-40.6c-1.6,0-3.8,0.3-5.1,0.8l-2.1-2.8c1.9,0.2,3.8,0.3,5.5,0.3h35l3-4L944.6-18.5z M924.4-3.7
			c9.7,5.4,10.6,7.8,10.6,9.8c0,1.7-0.8,3.1-2.4,3.1c-0.7,0-1.4-0.8-1.6-2.1c-0.1-0.6-0.3-1.4-0.7-2.2l-8.1,0.9
			c-8.6,1-13.7,2.1-14.9,3.2c-0.1,0.1-0.2,0.2-0.3,0.2c-0.2,0-0.5-0.2-0.7-0.5l-2.2-3.8c3.2-0.7,4.1-1.2,6-3.3
			c3.6-4.1,6.5-7.6,9.3-12l3.4,3c0.4,0.2,0.5,0.4,0.5,0.5c0,0.2-0.2,0.3-0.8,0.5c-1,0.3-1.6,0.8-3.3,2.3c-2.8,2.5-6.4,5.5-10.8,9
			l21.1-1.2c-1.1-1.9-2.9-4.2-5.6-6.5L924.4-3.7z M913.9-29.2c7.1,2.4,10,4.4,10,7.4c0,1.7-1.1,3-2.2,3c-0.9,0-1.7-0.5-2.3-2.8
			c-0.4-1.4-2.5-4.3-5.9-6.7L913.9-29.2z M928.4-14.4c5.5,2.8,13.5,7.8,13.5,12.8c0,2-1.3,3-2.1,3c-0.7,0-1.3-0.2-2.2-2.6
			c-1.8-4.7-4.9-8.7-9.8-12.2L928.4-14.4z"/>
		<path d="M952-8c9.3,2.1,11.6,4,11.6,7.4c0,2.1-1.1,3.3-2.3,3.3c-0.7,0-1.1-0.3-1.7-1.7c-1.3-3.3-2.6-5.3-7.8-8.1L952-8z
			 M973.8-15.1l-8.4,29.9c-0.8,2.7-1.1,5.9-1.1,9.1c0,3.4,0.4,7.1,1,10.9c0.1,0.5,0.2,1.1,0.2,1.5c0,2.4-1.2,3.6-2.8,3.6
			c-1.5,0-2.5-1.1-2.5-3.2c0-0.5,0.1-1.2,0.2-2c0.9-4.6,1.4-7.8,1.4-9.8c0-3.3-1.1-4-3.2-4.5c-2.1-0.5-4.1-0.7-6.5-0.7v-1.2
			c7.5,0.2,9.3-0.7,10.7-4.7l10-29.4L973.8-15.1z M956.2-24.9c9.1,2.3,12.4,4,12.4,7.4c0,1.7-0.9,3.6-2.1,3.6
			c-0.8,0-1.3-0.3-2.1-2.2c-1.1-2.6-3-5.1-8.6-8.1L956.2-24.9z M1022.7,34.4c-3-0.1-4.8,0.5-6.5,2.7c-0.2,0.3-0.5,0.4-0.8,0.4
			c-0.2,0-0.5-0.1-0.8-0.3c-11.4-7.8-15.7-15.1-19.5-24.4c-2.1,1.8-4.3,3.6-6.7,5.6v16.3l10-4.4l0.5,1.1c-9.1,5.1-11.6,7.2-13.4,9.1
			c-0.2,0.3-0.4,0.4-0.5,0.4s-0.3-0.1-0.5-0.3l-2.2-3.4c2.4-1.4,2.7-2.1,2.7-3.1V21.1c-6,4.7-11.6,8.6-17.2,11.7l-0.6-1
			c8.4-5.4,19-14.7,27.2-23.9l4,2.9c0.2,0.2,0.2,0.2,0.2,0.3c0,0.2-0.2,0.3-0.5,0.3c-0.8,0.1-1.4,0.2-2.1,0.6
			c1.4,3.1,3.2,6.2,5.3,8.9c4-3,7.4-5.8,10.3-8.7l3,3c0.2,0.2,0.2,0.3,0.2,0.5s-0.2,0.5-0.6,0.5c-0.9,0-1.3,0.2-12.1,5.6
			c4.9,6,11.7,10.5,20.4,11.6V34.4z M990.2-11.9c0.3,0.3,0.5,0.5,0.5,0.7c0,0.2-0.2,0.2-0.5,0.3c-1.1,0.2-2.1,0.7-3.1,1.6
			c-5.3,4.8-8.8,7.8-13.9,12l-0.8-0.8c5.1-5.2,11.4-12.8,14.1-16.9L990.2-11.9z M1020.6-18.5c0.5,0.4,0.8,0.7,0.8,1
			c0,0.3-0.4,0.5-1.1,0.5h-40.6c-1.6,0-3.8,0.3-5.1,0.8l-2.1-2.8c1.9,0.2,3.8,0.3,5.5,0.3h35l3-4L1020.6-18.5z M1000.4-3.7
			c9.7,5.4,10.6,7.8,10.6,9.8c0,1.7-0.8,3.1-2.4,3.1c-0.7,0-1.4-0.8-1.6-2.1c-0.1-0.6-0.3-1.4-0.7-2.2l-8.1,0.9
			c-8.6,1-13.7,2.1-14.9,3.2c-0.1,0.1-0.2,0.2-0.3,0.2c-0.2,0-0.5-0.2-0.7-0.5l-2.2-3.8c3.2-0.7,4.1-1.2,6-3.3
			c3.6-4.1,6.5-7.6,9.3-12l3.4,3c0.4,0.2,0.5,0.4,0.5,0.5c0,0.2-0.2,0.3-0.8,0.5c-1,0.3-1.6,0.8-3.3,2.3c-2.8,2.5-6.4,5.5-10.8,9
			l21.1-1.2c-1.1-1.9-2.9-4.2-5.6-6.5L1000.4-3.7z M989.9-29.2c7.1,2.4,10,4.4,10,7.4c0,1.7-1.1,3-2.2,3c-0.9,0-1.7-0.5-2.3-2.8
			c-0.4-1.4-2.5-4.3-5.9-6.7L989.9-29.2z M1004.4-14.4c5.5,2.8,13.5,7.8,13.5,12.8c0,2-1.3,3-2.1,3c-0.7,0-1.3-0.2-2.2-2.6
			c-1.8-4.7-4.9-8.7-9.8-12.2L1004.4-14.4z"/>
		<path d="M1099.4,32.2c-4.7-0.2-8.1,2-9,3.9c-0.1,0.2-0.2,0.2-0.4,0.2c-0.2,0-0.3,0-0.5-0.1c-14.4-6.2-24.2-15.4-28.6-31.5h-12.2
			V34l15.6-6.7l0.4,1c-13.5,7.8-17.3,10.6-18.3,12.3c-0.3,0.5-0.5,0.7-0.7,0.7c-0.2,0-0.4-0.1-0.6-0.3l-3.6-3.2
			c2.9-2.3,3.7-3.8,3.7-6.5V4.8h-10.9c-1.6,0-3.8,0.3-5.1,0.8l-2.1-2.8c1.9,0.2,3.8,0.3,5.5,0.3h12.5v-21.8c0-3.1-0.2-8-0.3-10.8
			l6.3,3.3c0.5,0.2,0.7,0.4,0.7,0.5c0,0.2-0.2,0.4-0.6,0.7l-2.6,1.9V3.1h39.4l3.5-4.9l5.7,5.5c0.4,0.4,0.5,0.6,0.5,0.8
			s-0.2,0.2-0.8,0.2h-34.6c7.4,16.9,18.9,26.5,36.9,26.5V32.2z M1085.7-21.4c0.3,0.3,0.5,0.5,0.5,0.6c0,0.2-0.3,0.2-0.8,0.3
			c-2,0.2-3.6,0.8-7.1,3.2c-6.2,4.3-15.6,10.4-23.7,15.4l-0.6-0.9c12.2-8.8,20-15.6,26.8-23L1085.7-21.4z"/>
		<path d="M1104.6-10.2c7.1,2.5,10.8,4,10.8,8.1c0,1.7-0.8,3.1-1.8,3.1c-0.8,0-1.3-0.3-2.1-2.4c-1.2-3-3.7-6-7.2-7.9L1104.6-10.2z
			 M1125.4-12.2l-8.3,25.2c-1.3,4-1.9,7-1.9,10.3c0,1.9,0.2,3.9,0.5,6.2c0.4,2.4,0.6,4.3,0.6,5.7c0,2.8-0.8,3.9-2.8,3.9
			c-1.4,0-2.3-1.4-2.3-3.6c0-0.7,0.1-1.4,0.2-2.2c0.8-3.7,1.1-6.4,1.1-8.4c0-3-0.2-6.3-8.1-7.6l0.2-1.1c1.7,0.2,3,0.3,4.1,0.3
			c3.4,0,4.3-1.2,6.1-5.7l9.5-23.4L1125.4-12.2z M1111.8-26.5c7.1,2.4,10.3,4.3,10.3,7.8c0,1.7-0.8,3.2-1.7,3.2
			c-0.9,0-1.3-0.5-2-1.9c-1.3-2.9-3-5.2-7.1-8.4L1111.8-26.5z M1172.8,31.3c0.6,0.6,0.9,1,0.9,1.2c0,0.3-0.5,0.4-1.3,0.4h-45.9
			c-1.6,0-3.9,0.3-5.1,0.8l-2.1-2.7c1.8,0.2,3.8,0.3,5.5,0.3h20v-47.9h-10.6c-1.6,0-3.9,0.3-5.1,0.8l-2.1-2.7
			c1.8,0.2,3.8,0.3,5.5,0.3h28l3.3-4.3l4.3,4.3c0.5,0.5,0.8,0.9,0.8,1.2c0,0.3-0.5,0.5-1.3,0.5h-19.2v47.9h16.7l3.6-4.3L1172.8,31.3
			z"/>
		<path d="M1205.9,16.1c0.2,0.2,0.4,0.4,0.4,0.5s-0.2,0.3-0.5,0.4c-1.6,0.4-1.9,0.5-2.5,1.1c-12.7,13-15.8,15.6-22.1,19.9l-0.8-1
			c8-6.8,15.7-15.7,21.1-24.9L1205.9,16.1z M1249.4-15.4c0.5,0.5,0.6,0.7,0.6,0.8c0,0.2-0.2,0.3-0.8,0.3h-41.3l-12.1,20.4h20.1V1.8
			c0-5.1-0.1-7.1-0.2-9.3l6,2.5c0.4,0.2,0.5,0.3,0.5,0.5s-0.2,0.4-0.5,0.6l-2.1,1.5v8.4h14.7l3.4-4.3l5.1,5c0.4,0.4,0.5,0.6,0.5,0.8
			c0,0.2-0.2,0.2-0.8,0.2h-23v25.2c0,5.2-1,6.3-6.2,8.4c-0.1,0.1-0.2,0.1-0.3,0.1c-0.2,0-0.4-0.2-0.5-0.6c-0.4-2.4-1.5-3.4-9-5.5
			l0.2-0.9c4.9,0.8,7.8,1.3,9.5,1.3c2.4,0,2.6-0.8,2.6-2.4V7.9h-19.6l-1.7,1.7c-0.3,0.3-0.5,0.5-0.8,0.5c-0.2,0-0.3-0.1-0.5-0.2
			l-4.1-4.1c3.5-1.5,3.7-1.7,5.2-4c3-4.6,6.4-10.4,9.7-16.1h-15c-1.6,0-3.8,0.3-5.1,0.8l-2.1-2.8c1.9,0.2,3.8,0.3,5.5,0.3h17.6
			c2.8-4.9,5.3-9.7,7-13.4l4.6,3.6c0.3,0.2,0.4,0.4,0.4,0.5c0,0.2-0.2,0.3-0.5,0.5l-3,1.1l-4.6,7.8h31.8l3.5-4.8L1249.4-15.4z
			 M1226.4,14.1c15,8.9,20,13.3,20,18.3c0,1.9-0.9,3.3-2.1,3.3c-0.7,0-1.1-0.5-2.7-3.6c-1.8-3.8-6.2-9.5-15.8-16.9L1226.4,14.1z"/>
		<path d="M1326.9,35.7c-2.9,0.8-4.5,1.8-5.7,3.7c-0.4,0.7-0.6,0.8-1.3,0.8c-12.2,0-23.9-0.5-32.1-1c-8.4-0.5-14.2-3.5-17.3-11
			c-0.5-1.2-0.9-1.9-1.4-1.9c-1.5,0-6.3,7.8-7.9,11.9c-0.2,0.5-0.3,0.6-0.5,0.6c-0.2,0-0.4-0.1-0.6-0.2l-4-2l11.8-11.6V1.7h-5.7
			c-1.4,0-3,0.2-4.1,0.7l-2.2-2.4c2.4,0.2,4.1,0.2,5.2,0.2h5.6l2.1-3.4l4.8,3.6c0.3,0.2,0.5,0.5,0.5,0.7c0,0.2-0.2,0.4-0.6,0.6
			l-2.1,1.3v21.9c0,4.9,6,11.1,17.1,11.4c2.6,0.1,5.2,0.1,7.8,0.1c8.9,0,18.2-0.4,30.7-1.5V35.7z M1262.2-24.8c3,1.6,10,6.5,10,10.3
			c0,2.2-1.7,4-2.5,4c-0.8,0-1.1-0.5-1.6-2.7c-0.6-2.8-2.9-7.8-6.6-11L1262.2-24.8z M1298.7-12.6c0.2,0.2,0.4,0.5,0.4,0.6
			c0,0.2-0.2,0.4-0.7,0.4h-9.3v11.5l8.7-4.6l0.4,1l-9.1,6v18.3c0,5.3-0.5,6.4-4.7,8.3c-0.2,0.1-0.3,0.2-0.4,0.2
			c-0.2,0-0.4-0.2-0.5-0.7c-0.8-2.5-2.4-3.5-7.1-4.8v-0.9c3.3,0.7,5.3,1.1,6.7,1.1c2.3,0,2.5-1,2.5-3.2v-16c-5.9,4-7.1,4.9-7.7,5.8
			c-0.2,0.3-0.4,0.5-0.6,0.5c-0.2,0-0.5-0.2-0.7-0.4l-2.7-2.5l11.6-6.2v-13.3h-2.9c-1.6,0-3.8,0.3-5.1,0.8l-2.1-2.8
			c1.8,0.2,3.8,0.3,5.5,0.3h4.6v-5.3c0-3.1-0.2-8.1-0.3-10.9l5.2,2.7c0.3,0.2,0.5,0.3,0.5,0.5c0,0.3-0.2,0.5-1.8,1.4v11.6h3.4
			l2.5-3.3L1298.7-12.6z M1325.5-5.8c0.4,0.4,0.5,0.6,0.5,0.8s-0.2,0.3-0.7,0.3h-9v19.8c0,5.9,0.2,10.9,0.3,13.2v0.5
			c0,1.1-0.3,1.4-1.9,2.1c-0.7,0.3-1.1,0.5-1.4,0.5c-0.6,0-0.8-0.5-0.8-1.8V29c0.2-4.5,0.2-9.7,0.2-14V-4.6h-8.4
			c0,22.3-2,27.5-14.1,36.5l-0.6-0.9c11.4-10.4,11.4-16,11.4-39.1c0-4.8-0.1-9.8-0.2-15.7l4,3.6c4.9-1.6,9.2-3.7,14.1-6.7l3.6,3.2
			c0.3,0.2,0.5,0.5,0.5,0.6c0,0.2-0.2,0.3-0.7,0.3c-0.2,0-1-0.1-1.2-0.1c-0.9,0-2,0.2-4.1,0.8c-3.6,1-7.8,2.1-12.8,3.4v12.5h14.7
			l2.3-3.6L1325.5-5.8z"/>
		<path d="M1361-7.2c0.3,0.2,0.5,0.4,0.5,0.5c0,0.2-0.2,0.3-0.8,0.4c-1.4,0.2-2.4,1.4-3.1,3.5c-5.5,16.3-13.8,28.8-25.3,37.9
			l-0.7-0.8c12-12.4,18.7-24.9,22.6-40.2h-14.6c-1.6,0-3.8,0.3-5.1,0.8l-2.1-2.8c1.9,0.2,3.8,0.3,5.5,0.3h15.9l2.3-3.4L1361-7.2z
			 M1402.5,30c-0.9-0.1-1.8-0.2-2.6-0.2c-2.8,0-4.6,0.8-5.5,2.1c-0.2,0.3-0.4,0.5-0.6,0.5c-0.2,0-0.4-0.1-0.6-0.3
			c-13.5-12.4-19.8-23.6-24.8-47.7v48c0,5.9-0.8,7.8-5.5,9.2c-0.2,0.1-0.3,0.1-0.4,0.1c-0.3,0-0.4-0.2-0.5-0.5
			c-0.2-2.2-1.7-3.6-9.7-5.6l0.2-1.3c4.9,1,7.9,1.5,9.7,1.5c2.6,0,2.7-1.1,2.7-3.3v-51.2c0-3.1-0.2-8.3-0.3-11.1l6.2,3.1
			c0.3,0.2,0.4,0.3,0.4,0.4c0,0.2-0.1,0.3-0.4,0.5l-2.4,1.5v3.8c1.7,6.7,4,14.4,6.7,21c4.1-3.7,10.3-10.9,14.9-16.7l4.6,4.3
			c0.5,0.4,0.6,0.6,0.6,0.8c0,0.2-0.2,0.2-1.4,0.2c-1.4,0-2.3,0.3-3.6,1.3l-14.6,11.6c7.8,18,16.9,25,26.8,27V30z"/>
	</g>
	<g>
	</g>
	<g>
	</g>
	<g>
	</g>
	<g>
	</g>
	<g>
	</g>
	<g>
	</g>
	<g>
	</g>
	<g>
	</g>
	<g>
	</g>
	<g>
	</g>
	<g>
	</g>
	<g>
	</g>
	<g>
	</g>
	<g>
	</g>
	<g>
	</g>
</g>
</svg>
